<svg width="16" height="16" viewBox="0 0 16 16" fill="none" xmlns="http://www.w3.org/2000/svg">
<path d="M16 1.33333V3.66667C16 3.84348 15.9298 4.01305 15.8047 4.13807C15.6797 4.2631 15.5101 4.33333 15.3333 4.33333C15.1565 4.33333 14.987 4.2631 14.8619 4.13807C14.7369 4.01305 14.6667 3.84348 14.6667 3.66667V1.33333H12.3333C12.1565 1.33333 11.987 1.2631 11.8619 1.13807C11.7369 1.01305 11.6667 0.843478 11.6667 0.666667C11.6667 0.489856 11.7369 0.320287 11.8619 0.195262C11.987 0.070238 12.1565 0 12.3333 0H14.6667C15.0203 0 15.3594 0.140476 15.6095 0.390524C15.8595 0.640573 16 0.979711 16 1.33333ZM15.3333 11.6667C15.1565 11.6667 14.987 11.7369 14.8619 11.8619C14.7369 11.987 14.6667 12.1565 14.6667 12.3333V14.6667H12.3333C12.1565 14.6667 11.987 14.7369 11.8619 14.8619C11.7369 14.987 11.6667 15.1565 11.6667 15.3333C11.6667 15.5101 11.7369 15.6797 11.8619 15.8047C11.987 15.9298 12.1565 16 12.3333 16H14.6667C15.0203 16 15.3594 15.8595 15.6095 15.6095C15.8595 15.3594 16 15.0203 16 14.6667V12.3333C16 12.1565 15.9298 11.987 15.8047 11.8619C15.6797 11.7369 15.5101 11.6667 15.3333 11.6667ZM3.66667 14.6667H1.33333V12.3333C1.33333 12.1565 1.2631 11.987 1.13807 11.8619C1.01305 11.7369 0.843478 11.6667 0.666667 11.6667C0.489856 11.6667 0.320287 11.7369 0.195262 11.8619C0.070238 11.987 0 12.1565 0 12.3333V14.6667C0 15.0203 0.140476 15.3594 0.390524 15.6095C0.640573 15.8595 0.979711 16 1.33333 16H3.66667C3.84348 16 4.01305 15.9298 4.13807 15.8047C4.2631 15.6797 4.33333 15.5101 4.33333 15.3333C4.33333 15.1565 4.2631 14.987 4.13807 14.8619C4.01305 14.7369 3.84348 14.6667 3.66667 14.6667ZM0.666667 4.33333C0.843478 4.33333 1.01305 4.2631 1.13807 4.13807C1.2631 4.01305 1.33333 3.84348 1.33333 3.66667V1.33333H3.66667C3.84348 1.33333 4.01305 1.2631 4.13807 1.13807C4.2631 1.01305 4.33333 0.843478 4.33333 0.666667C4.33333 0.489856 4.2631 0.320287 4.13807 0.195262C4.01305 0.070238 3.84348 0 3.66667 0H1.33333C0.979711 0 0.640573 0.140476 0.390524 0.390524C0.140476 0.640573 0 0.979711 0 1.33333V3.66667C0 3.84348 0.070238 4.01305 0.195262 4.13807C0.320287 4.2631 0.489856 4.33333 0.666667 4.33333ZM11.8333 12.3083C11.4654 11.6104 10.914 11.0262 10.2384 10.6187C9.56292 10.2111 8.78894 9.99573 8 9.99573C7.21106 9.99573 6.43708 10.2111 5.76155 10.6187C5.08602 11.0262 4.53457 11.6104 4.16667 12.3083C4.12618 12.386 4.07078 12.455 4.00363 12.5113C3.93649 12.5676 3.85892 12.6101 3.77535 12.6364C3.69177 12.6627 3.60384 12.6723 3.51656 12.6646C3.42928 12.6569 3.34437 12.6322 3.26667 12.5917C3.18897 12.5512 3.12001 12.4958 3.06372 12.4286C3.00743 12.3615 2.96491 12.2839 2.9386 12.2003C2.91229 12.1168 2.9027 12.0288 2.91038 11.9416C2.91805 11.8543 2.94284 11.7694 2.98333 11.6917C3.59317 10.5482 4.57087 9.64393 5.75833 9.125C5.41354 8.8152 5.13806 8.43607 4.94994 8.01243C4.76181 7.58879 4.66528 7.1302 4.66667 6.66667C4.66667 5.78261 5.01786 4.93477 5.64298 4.30964C6.2681 3.68452 7.11595 3.33333 8 3.33333C8.88406 3.33333 9.7319 3.68452 10.357 4.30964C10.9821 4.93477 11.3333 5.78261 11.3333 6.66667C11.3347 7.1302 11.2382 7.58879 11.0501 8.01243C10.8619 8.43607 10.5865 8.8152 10.2417 9.125C11.4291 9.64393 12.4068 10.5482 13.0167 11.6917C13.0964 11.849 13.1113 12.0312 13.0584 12.1994C13.0054 12.3676 12.8888 12.5084 12.7333 12.5917C12.6377 12.6399 12.5322 12.6656 12.425 12.6667C12.3026 12.6687 12.1822 12.6361 12.0775 12.5727C11.9729 12.5093 11.8882 12.4177 11.8333 12.3083ZM8 8.66667C8.39556 8.66667 8.78224 8.54937 9.11114 8.32961C9.44004 8.10984 9.69638 7.79749 9.84776 7.43203C9.99914 7.06658 10.0387 6.66445 9.96157 6.27649C9.8844 5.88852 9.69392 5.53216 9.41421 5.25245C9.13451 4.97275 8.77814 4.78227 8.39018 4.7051C8.00222 4.62793 7.60009 4.66753 7.23463 4.81891C6.86918 4.97028 6.55682 5.22663 6.33706 5.55553C6.1173 5.88442 6 6.2711 6 6.66667C6.00219 7.19642 6.21361 7.70386 6.58821 8.07846C6.96281 8.45306 7.47024 8.66447 8 8.66667Z" fill="black"/>
</svg>
