<svg width="30" height="30" viewBox="0 0 30 30" fill="none" xmlns="http://www.w3.org/2000/svg">
<path d="M18.3726 6.28087C18.3225 4.46334 16.8294 3 15 3C13.1706 3 11.6775 4.46334 11.6274 6.28087C8.39691 7.56192 6 10.814 6 14.625V24.75C6 25.9908 7.00922 27 8.25 27H21.75C22.9908 27 24 25.9908 24 24.75V14.625C24 10.8227 21.6112 7.56511 18.3726 6.28087ZM15 4.5C15.8344 4.5 16.543 5.04806 16.7855 5.80303C15.6198 5.56748 14.3989 5.56373 13.2145 5.80303C13.457 5.04806 14.1655 4.5 15 4.5ZM21 22.125C21 23.3658 19.9908 24.375 18.75 24.375H11.25C10.0092 24.375 9 23.3658 9 22.125V19.5C9 18.2592 10.0092 17.25 11.25 17.25H18.75C19.9908 17.25 21 18.2592 21 19.5V22.125ZM20.625 15.375C20.2106 15.375 19.875 15.0394 19.875 14.625C19.875 11.9367 17.6883 9.75 15 9.75C12.3117 9.75 10.125 11.9367 10.125 14.625C10.125 15.0394 9.78937 15.375 9.375 15.375C8.96062 15.375 8.625 15.0394 8.625 14.625C8.625 11.1098 11.4848 8.25 15 8.25C18.5152 8.25 21.375 11.1098 21.375 14.625C21.375 15.0394 21.0394 15.375 20.625 15.375Z" fill="white"/>
<path d="M18.75 18.75H11.25C10.8366 18.75 10.5 19.0866 10.5 19.5V22.125C10.5 22.5384 10.8366 22.875 11.25 22.875H18.75C19.1634 22.875 19.5 22.5384 19.5 22.125V19.5C19.5 19.0866 19.1634 18.75 18.75 18.75Z" fill="white"/>
<path d="M26.25 15.75H25.7344C25.605 15.75 25.5 15.855 25.5 15.9844V23.8601C25.5 24.0674 25.7512 24.1745 25.898 24.028C26.5785 23.3486 27 22.4102 27 21.375V16.5C27 16.0858 26.6642 15.75 26.25 15.75Z" fill="white"/>
<path d="M3 16.5V21.375C3 22.4102 3.42155 23.3486 4.10203 24.0281C4.24875 24.1746 4.5 24.0674 4.5 23.8601V15.9844C4.5 15.855 4.39505 15.75 4.26562 15.75H3.75C3.33577 15.75 3 16.0858 3 16.5Z" fill="white"/>
</svg>
