<svg width="20" height="20" viewBox="0 0 20 20" fill="none" xmlns="http://www.w3.org/2000/svg">
<g clip-path="url(#clip0_44_878)">
<path fill-rule="evenodd" clip-rule="evenodd" d="M5.67797 18.9443H14.3206C14.8711 18.9443 15.317 18.4984 15.3175 17.9478V9.05811L15.875 9.61612C16.0618 9.80295 16.3154 9.90807 16.5795 9.90757H16.58C16.844 9.90757 17.0976 9.80245 17.2845 9.61562L19.7078 7.18929C20.0964 6.79968 20.0964 6.16944 19.7078 5.78033L15.2766 1.34718C15.0893 1.16035 14.8357 1.05522 14.5717 1.05522H14.5712C14.5293 1.05522 14.488 1.05821 14.4471 1.06319C14.4058 1.05771 14.3639 1.05522 14.3216 1.05522H13.0895C12.7512 1.05522 12.4363 1.22661 12.253 1.5101C11.8609 2.11593 10.976 2.50703 9.99951 2.50703C9.02301 2.50703 8.13867 2.11593 7.74657 1.5101C7.56323 1.22661 7.24785 1.05522 6.91006 1.05522H5.67797C5.63562 1.05522 5.59377 1.05821 5.55241 1.06319C5.25149 1.02533 4.93911 1.13045 4.72288 1.34718L0.290726 5.78083C-0.0978851 6.17043 -0.0978851 6.80068 0.290726 7.18979L2.71456 9.61562C2.90139 9.80245 3.15548 9.90757 3.41954 9.90757C3.68409 9.90757 3.93769 9.80295 4.12452 9.61562L4.68153 9.05861V17.9478C4.68153 18.4979 5.12793 18.9443 5.67797 18.9443Z" fill="white"/>
</g>
<defs>
<clipPath id="clip0_44_878">
<rect width="20" height="20" fill="white"/>
</clipPath>
</defs>
</svg>
