<svg width="20" height="20" viewBox="0 0 20 20" fill="none" xmlns="http://www.w3.org/2000/svg">
<path d="M12.1399 4.18001C13.031 5.07221 13.5888 6.24335 13.7198 7.49753C13.8509 8.7517 13.5473 10.0128 12.8599 11.07C12.9799 11.17 13.0799 11.28 13.2199 11.38C13.4199 11.54 13.6899 11.74 14.0299 11.97C14.3699 12.21 14.5899 12.36 14.6899 12.44C15.1099 12.75 15.4199 13.01 15.6299 13.22C15.9499 13.54 16.2299 13.87 16.4699 14.22C16.7199 14.57 16.9099 14.91 17.0599 15.26C17.1999 15.61 17.2699 15.94 17.2399 16.26C17.2199 16.58 17.0999 16.85 16.8799 17.07C16.6599 17.29 16.3899 17.41 16.0699 17.43C15.7599 17.45 15.4199 17.39 15.0799 17.24C14.7299 17.1 14.3799 16.9 14.0399 16.65C13.6899 16.41 13.3599 16.13 13.0399 15.81C12.8299 15.6 12.5699 15.29 12.2699 14.88C12.1699 14.75 12.0199 14.53 11.7999 14.22C11.5799 13.9 11.3999 13.65 11.2399 13.44C11.0799 13.24 10.9499 13.09 10.7999 12.94C9.76193 13.4835 8.5776 13.6815 7.4193 13.5053C6.261 13.329 5.18919 12.7876 4.35988 11.96C2.21988 9.81001 2.21988 6.32001 4.35988 4.18001C4.87051 3.66877 5.47689 3.26321 6.14437 2.98649C6.81185 2.70978 7.52732 2.56735 8.24988 2.56735C8.97244 2.56735 9.68792 2.70978 10.3554 2.98649C11.0229 3.26321 11.6293 3.66877 12.1399 4.18001V4.18001ZM10.7299 10.54C11.3832 9.88194 11.7498 8.99228 11.7498 8.06501C11.7498 7.13774 11.3832 6.24807 10.7299 5.59001C10.4052 5.26437 10.0195 5.006 9.59476 4.82971C9.17005 4.65342 8.71472 4.56268 8.25488 4.56268C7.79504 4.56268 7.33972 4.65342 6.91501 4.82971C6.4903 5.006 6.10456 5.26437 5.77988 5.59001C5.45424 5.91468 5.19588 6.30043 5.01959 6.72514C4.8433 7.14984 4.75255 7.60517 4.75255 8.06501C4.75255 8.52485 4.8433 8.98017 5.01959 9.40488C5.19588 9.82959 5.45424 10.2153 5.77988 10.54C6.10456 10.8656 6.4903 11.124 6.91501 11.3003C7.33972 11.4766 7.79504 11.5673 8.25488 11.5673C8.71472 11.5673 9.17005 11.4766 9.59476 11.3003C10.0195 11.124 10.4052 10.8656 10.7299 10.54V10.54Z" fill="white"/>
</svg>
