<svg width="20" height="20" viewBox="0 0 20 20" fill="none" xmlns="http://www.w3.org/2000/svg">
<path d="M19.4109 3.65174C18.1988 3.17962 16.9857 3 15.7732 3C11.9242 2.99971 8.0755 4.80897 4.2265 4.80897C3.2612 4.80897 2.29653 4.69522 1.33123 4.41085C1.22279 4.37893 1.11405 4.36384 1.0078 4.36384C0.469993 4.36384 0 4.75036 0 5.2869V14.4931C0 14.8596 0.225934 15.2069 0.588741 15.348C1.80091 15.8204 3.01402 16 4.2265 16C8.0755 16 11.9245 14.1907 15.7735 14.1907C16.7388 14.1907 17.7035 14.3045 18.6688 14.5889C18.7772 14.6208 18.886 14.6359 18.9922 14.6359C19.53 14.6359 20 14.2494 20 13.7128V4.5069C19.9997 4.14011 19.7738 3.79306 19.4109 3.65174V3.65174ZM9.99984 12.2857C8.61893 12.2857 7.49988 11.0382 7.49988 9.5C7.49988 7.96147 8.61924 6.71429 9.99984 6.71429C11.3804 6.71429 12.4998 7.96147 12.4998 9.5C12.4998 11.0388 11.3801 12.2857 9.99984 12.2857Z" fill="white"/>
</svg>
