<svg width="20" height="20" viewBox="0 0 20 20" fill="none" xmlns="http://www.w3.org/2000/svg">
<path d="M7 7.5C7 4.424 9.424 2 12.5 2C15.576 2 18 4.424 18 7.5C18 10.576 15.576 13 12.5 13C11.9943 13.0061 11.4899 12.9456 11 12.82V13C11 13.2652 10.8946 13.5196 10.7071 13.7071C10.5196 13.8946 10.2652 14 10 14H9V15C9 15.2652 8.89464 15.5196 8.70711 15.7071C8.51957 15.8946 8.26522 16 8 16H7V16.5C7 16.8978 6.84196 17.2794 6.56066 17.5607C6.27936 17.842 5.89782 18 5.5 18H3.5C3.10218 18 2.72064 17.842 2.43934 17.5607C2.15804 17.2794 2 16.8978 2 16.5V14.914C2 14.516 2.158 14.134 2.44 13.854L6.98 9.313C7.114 9.179 7.18 8.945 7.122 8.675C7.04015 8.28871 6.99926 7.89487 7 7.5V7.5ZM15 6C15 5.73478 14.8946 5.48043 14.7071 5.29289C14.5196 5.10536 14.2652 5 14 5C13.7348 5 13.4804 5.10536 13.2929 5.29289C13.1054 5.48043 13 5.73478 13 6C13 6.26522 13.1054 6.51957 13.2929 6.70711C13.4804 6.89464 13.7348 7 14 7C14.2652 7 14.5196 6.89464 14.7071 6.70711C14.8946 6.51957 15 6.26522 15 6Z" fill="white"/>
</svg>
