<svg width="30" height="30" viewBox="0 0 30 30" fill="none" xmlns="http://www.w3.org/2000/svg">
<path fill-rule="evenodd" clip-rule="evenodd" d="M15 8.125C15.7459 8.125 16.4613 7.82868 16.9888 7.30124C17.5162 6.77379 17.8125 6.05842 17.8125 5.3125C17.8125 4.56658 17.5162 3.85121 16.9888 3.32376C16.4613 2.79632 15.7459 2.5 15 2.5C14.2541 2.5 13.5387 2.79632 13.0113 3.32376C12.4838 3.85121 12.1875 4.56658 12.1875 5.3125C12.1875 6.05842 12.4838 6.77379 13.0113 7.30124C13.5387 7.82868 14.2541 8.125 15 8.125ZM23.7 9.65C23.7928 9.96826 23.7554 10.3104 23.596 10.601C23.4366 10.8917 23.1683 11.1072 22.85 11.2C21.365 11.6325 20.0238 11.9588 18.75 12.1756V26.25C18.7504 26.572 18.6265 26.8817 18.4042 27.1146C18.1819 27.3474 17.8783 27.4856 17.5566 27.5002C17.235 27.5147 16.9201 27.4047 16.6777 27.1928C16.4352 26.981 16.2838 26.6838 16.255 26.3631L15.63 19.4881C15.6266 19.4505 15.625 19.4128 15.625 19.375H14.375C14.3751 19.4128 14.3734 19.4505 14.37 19.4881L13.745 26.3631C13.7163 26.6838 13.5649 26.981 13.3224 27.1928C13.0799 27.4047 12.765 27.5147 12.4434 27.5002C12.1218 27.4856 11.8182 27.3474 11.5958 27.1146C11.3735 26.8817 11.2497 26.572 11.25 26.25V12.1525C9.9794 11.9338 8.64315 11.6144 7.16565 11.2044C7.00595 11.1618 6.85627 11.0881 6.72527 10.9873C6.59427 10.8866 6.48454 10.7609 6.40245 10.6174C6.32035 10.474 6.26751 10.3157 6.24698 10.1517C6.22646 9.98774 6.23865 9.82132 6.28286 9.66208C6.32707 9.50284 6.40242 9.35394 6.50455 9.22401C6.60667 9.09408 6.73355 8.98569 6.87784 8.90511C7.02213 8.82454 7.18096 8.77337 7.34516 8.75458C7.50935 8.73578 7.67563 8.74974 7.8344 8.79562C10.7144 9.59438 12.8781 9.99062 15.0056 10C17.1281 10.0094 19.2869 9.63438 22.15 8.8C22.4683 8.70717 22.8104 8.74458 23.1011 8.90398C23.3917 9.06339 23.6072 9.33174 23.7 9.65Z" fill="white"/>
</svg>
