<svg width="20" height="20" viewBox="0 0 20 20" fill="none" xmlns="http://www.w3.org/2000/svg">
<g clip-path="url(#clip0_44_865)">
<path d="M14.3749 5.00001H14.3785ZM18.7324 3.75001H15.1753L15.5238 2.35704L17.0206 1.84727C17.339 1.73907 17.5285 1.40079 17.4367 1.07735C17.4133 0.995989 17.3737 0.920219 17.3201 0.854637C17.2666 0.789056 17.2003 0.735029 17.1253 0.695835C17.0503 0.656641 16.9681 0.633096 16.8837 0.626629C16.7993 0.620161 16.7144 0.630906 16.6343 0.658211L14.7984 1.28321C14.6995 1.31693 14.6107 1.37488 14.54 1.45179C14.4693 1.52869 14.419 1.62209 14.3937 1.72344L13.8871 3.75001H8.76752C8.43119 3.75001 8.14252 4.0086 8.12572 4.34493C8.12165 4.42944 8.13478 4.51389 8.16431 4.59317C8.19384 4.67245 8.23917 4.74491 8.29753 4.80616C8.35589 4.86741 8.42609 4.91617 8.50385 4.9495C8.58162 4.98282 8.66534 5 8.74994 5.00001H8.85736L8.89643 5.33829C8.90563 5.41729 8.94354 5.49015 9.00296 5.54302C9.06238 5.59588 9.13916 5.62506 9.21869 5.62501C10.7421 5.62501 12.096 6.05079 13.1296 6.85626C13.7045 7.29922 14.1706 7.86774 14.4921 8.51837C14.6721 8.88434 14.805 9.27168 14.8874 9.6711C14.9039 9.74894 14.95 9.81731 15.016 9.86173C15.5473 10.2223 15.9393 10.7538 16.1268 11.368C16.3143 11.9822 16.2859 12.6421 16.0464 13.2379C16.0186 13.3069 16.0165 13.3835 16.0406 13.4539C16.179 13.8505 16.2497 14.2675 16.2499 14.6875C16.2499 15.5602 15.9531 16.3918 15.414 17.0293C15.1084 17.3932 14.7239 17.6826 14.2898 17.8758C14.2147 17.9089 14.1556 17.9702 14.1253 18.0465C13.9631 18.4691 13.734 18.8629 13.4468 19.2129C13.4349 19.2271 13.4272 19.2444 13.4247 19.2628C13.4223 19.2812 13.4251 19.2999 13.4329 19.3168C13.4407 19.3336 13.4531 19.3479 13.4687 19.3579C13.4843 19.368 13.5025 19.3734 13.521 19.3734H15.4433C15.9139 19.3715 16.3668 19.1935 16.7128 18.8744C17.0587 18.5552 17.2726 18.1182 17.3124 17.6492L18.6484 5.00001H18.7499C18.8346 5.00011 18.9184 4.983 18.9963 4.94973C19.0741 4.91645 19.1444 4.86771 19.2029 4.80645C19.2613 4.74519 19.3067 4.67269 19.3363 4.59335C19.3659 4.51402 19.379 4.4295 19.3749 4.34493C19.3585 4.0086 19.0687 3.75001 18.7324 3.75001V3.75001Z" fill="white"/>
<path d="M4.2457 12.5C4.36897 12.4994 4.49113 12.5233 4.60512 12.5702C4.7191 12.6172 4.82265 12.6862 4.90977 12.7734L5.51563 13.3793C5.53014 13.3938 5.54737 13.4053 5.56634 13.4132C5.58531 13.4211 5.60564 13.4251 5.62617 13.4251C5.64671 13.4251 5.66704 13.4211 5.68601 13.4132C5.70498 13.4053 5.72221 13.3938 5.73672 13.3793L6.34141 12.7734C6.42853 12.6862 6.53207 12.6172 6.64606 12.5702C6.76004 12.5233 6.8822 12.4994 7.00547 12.5H14.6844C14.7254 12.5004 14.7661 12.4927 14.8042 12.4774C14.8423 12.4621 14.877 12.4394 14.9063 12.4107C14.9356 12.382 14.9589 12.3477 14.975 12.31C14.9911 12.2722 14.9996 12.2317 15 12.1906V12.1875C14.9996 11.8274 14.875 11.4785 14.6473 11.1996C14.4196 10.9207 14.1027 10.7288 13.75 10.6562C13.718 9.49648 13.2422 8.52578 12.3629 7.84375C11.5496 7.20938 10.4629 6.875 9.21875 6.875H6.40625C3.74141 6.875 1.93633 8.38945 1.875 10.6562C1.52231 10.7288 1.20541 10.9207 0.977707 11.1996C0.750008 11.4785 0.62544 11.8274 0.625 12.1875C0.625 12.2704 0.657924 12.3499 0.716529 12.4085C0.775135 12.4671 0.85462 12.5 0.9375 12.5H4.2457ZM7.26328 13.75C7.22223 13.75 7.18158 13.758 7.14364 13.7737C7.10571 13.7894 7.07123 13.8124 7.04219 13.8414L6.17734 14.7066C6.03084 14.8531 5.83216 14.9354 5.625 14.9354C5.41784 14.9354 5.21916 14.8531 5.07266 14.7066L4.20781 13.8414C4.17877 13.8124 4.1443 13.7894 4.10636 13.7737C4.06842 13.758 4.02777 13.75 3.98672 13.75H1.27578C1.12897 13.7493 0.98665 13.8006 0.873992 13.8948C0.761335 13.9889 0.685592 14.1199 0.660157 14.2645C0.636689 14.4042 0.62493 14.5458 0.625 14.6875C0.625 15.8824 1.45039 16.8559 2.47109 16.875C2.56602 17.4656 2.7957 17.9992 3.14141 18.4168C3.65273 19.0344 4.39609 19.375 5.23438 19.375H10.3906C11.2289 19.375 11.9723 19.0344 12.4836 18.416C12.8293 17.9984 13.059 17.4648 13.1539 16.8742C14.1746 16.8559 15 15.8824 15 14.6867C15.0001 14.545 14.9883 14.4035 14.9648 14.2637C14.9392 14.1192 14.8634 13.9885 14.7508 13.8945C14.6381 13.8005 14.4959 13.7493 14.3492 13.75H7.26328Z" fill="white"/>
</g>
<defs>
<clipPath id="clip0_44_865">
<rect width="20" height="20" fill="white"/>
</clipPath>
</defs>
</svg>
