<svg width="20" height="20" viewBox="0 0 20 20" fill="none" xmlns="http://www.w3.org/2000/svg">
<g clip-path="url(#clip0_44_854)">
<path fill-rule="evenodd" clip-rule="evenodd" d="M0.229945 17.3542L2.0574 19.5174C2.0574 19.5174 2.70238 20.43 3.16611 19.7458C3.62984 19.0631 6.40987 13.4278 6.40987 13.4278C6.40987 13.4278 6.68842 12.9679 6.8838 13.7895C7.07917 14.611 8.68379 18.5861 8.68379 18.5861C8.68379 18.5861 8.92624 18.9211 9.21735 18.6739C9.50924 18.4291 10.6768 17.4444 10.6768 17.4444C10.6768 17.4444 11.0707 17.3196 10.6627 16.5413C10.4146 16.0674 9.76536 14.5732 9.29326 13.4716C9.51539 13.2919 9.83856 13.0261 10.2735 12.658C10.7142 12.2864 10.8274 11.8113 10.8232 11.4112C11.5436 12.0128 12.7615 12.925 14.411 13.3328C16.6221 13.8813 18.5578 13.955 18.5578 13.955C18.5578 13.955 19.0318 13.9723 19.0985 13.1633C19.1675 12.3583 19.1275 11.2252 19.1275 11.2252C19.1275 11.2252 19.173 10.6854 18.6983 10.6697C18.5759 10.6654 18.4313 10.6744 18.2667 10.6845H18.2667C17.7953 10.7136 17.1595 10.7529 16.4087 10.5214C15.3957 10.2107 13.1069 8.53623 13.1069 8.53623C13.1069 8.53623 12.7397 8.24826 13.0802 7.95951L15.8037 5.66205C15.8037 5.66205 16.2125 5.35682 15.9661 5.06493L15.5974 4.62788L19.9255 0.972969L19.1032 0L16.4288 2.2574C16.0296 1.78428 15.1085 0.692936 14.9107 0.459748C14.6565 0.158442 13.9174 -0.106771 13.8271 0.950155C13.755 1.81726 13.6769 2.89788 13.638 3.44756C12.9351 4.03153 10.7757 5.82212 10.7757 5.82212C10.7757 5.82212 9.98866 4.9896 9.40567 5.48158C8.82267 5.97356 5.27369 8.9725 5.27369 8.9725C5.27369 8.9725 5.11911 9.18514 5.24073 9.62376C5.27379 9.74419 5.31443 9.85492 5.35153 9.95605C5.45007 10.2246 5.52374 10.4253 5.36471 10.5598C5.14658 10.7435 4.00334 11.7094 4.00334 11.7094C4.00334 11.7094 3.68398 12.0209 3.724 12.6125C3.7648 13.2026 3.43839 13.8507 2.80674 14.3858C2.17588 14.9194 0.354705 16.4149 0.354705 16.4149C0.354705 16.4149 -0.179644 16.8677 0.229945 17.3542ZM9.95071 10.7677C9.68317 10.7012 9.57908 10.9161 9.57908 10.9161C9.57908 10.9161 9.17027 11.2213 8.85406 11.4873C8.53706 11.7541 8.75598 12.2092 8.75598 12.2092C8.75598 12.2092 8.82719 12.378 8.9428 12.6502L9.51392 12.1683C9.79603 11.9304 10.0703 11.4317 9.95071 10.7677ZM15.0347 2.48415C15.1652 2.6372 15.3616 2.86845 15.505 3.03723L14.8496 3.59044C14.823 3.36483 14.7787 3.04133 14.724 2.83881C14.6094 2.41981 14.8079 2.21423 15.0347 2.48415Z" fill="white"/>
</g>
<defs>
<clipPath id="clip0_44_854">
<rect width="20" height="20" fill="white"/>
</clipPath>
</defs>
</svg>
