<svg width="27" height="27" viewBox="0 0 27 27" fill="none" xmlns="http://www.w3.org/2000/svg">
<g clip-path="url(#clip0_35_214)">
<path d="M17.1534 4.05428C17.0991 2.08529 15.4816 0.5 13.4998 0.5C11.5179 0.5 9.90043 2.08529 9.84609 4.05428C6.3464 5.44208 3.74976 8.96513 3.74976 13.0938V24.0625C3.74976 25.4067 4.84308 26.5 6.18726 26.5H20.8123C22.1564 26.5 23.2498 25.4067 23.2498 24.0625V13.0938C23.2498 8.97458 20.6619 5.44553 17.1534 4.05428V4.05428ZM13.4998 2.125C14.4037 2.125 15.1714 2.71873 15.434 3.53662C14.1712 3.28144 12.8486 3.27738 11.5655 3.53662C11.8281 2.71873 12.5957 2.125 13.4998 2.125V2.125ZM19.9998 21.2188C19.9998 22.5629 18.9064 23.6562 17.5623 23.6562H9.43726C8.09308 23.6562 6.99976 22.5629 6.99976 21.2188V18.375C6.99976 17.0308 8.09308 15.9375 9.43726 15.9375H17.5623C18.9064 15.9375 19.9998 17.0308 19.9998 18.375V21.2188ZM19.5935 13.9062C19.1446 13.9062 18.781 13.5427 18.781 13.0938C18.781 10.1814 16.4121 7.8125 13.4998 7.8125C10.5875 7.8125 8.21851 10.1814 8.21851 13.0938C8.21851 13.5427 7.85491 13.9062 7.40601 13.9062C6.9571 13.9062 6.59351 13.5427 6.59351 13.0938C6.59351 9.28566 9.69167 6.1875 13.4998 6.1875C17.3078 6.1875 20.406 9.28566 20.406 13.0938C20.406 13.5427 20.0424 13.9062 19.5935 13.9062Z" fill="white" fill-opacity="0.2"/>
<path d="M17.5623 17.5625H9.43726C8.98937 17.5625 8.62476 17.9271 8.62476 18.375V21.2187C8.62476 21.6666 8.98937 22.0312 9.43726 22.0312H17.5623C18.0101 22.0312 18.3748 21.6666 18.3748 21.2187V18.375C18.3748 17.9271 18.0101 17.5625 17.5623 17.5625Z" fill="white" fill-opacity="0.2"/>
<path d="M25.6873 14.3125H25.1287C24.9885 14.3125 24.8748 14.4262 24.8748 14.5664V23.0984C24.8748 23.323 25.1469 23.4391 25.3059 23.2804C26.0431 22.5443 26.4998 21.5278 26.4998 20.4062V15.125C26.4998 14.6762 26.136 14.3125 25.6873 14.3125Z" fill="white" fill-opacity="0.2"/>
<path d="M0.499756 15.125V20.4062C0.499756 21.5278 0.956432 22.5443 1.69362 23.2804C1.85257 23.4391 2.12476 23.323 2.12476 23.0985V14.5664C2.12476 14.4262 2.01106 14.3125 1.87085 14.3125H1.31226C0.863502 14.3125 0.499756 14.6762 0.499756 15.125Z" fill="white" fill-opacity="0.2"/>
</g>
<defs>
<clipPath id="clip0_35_214">
<rect x="0.499756" y="0.5" width="26" height="26" fill="white"/>
</clipPath>
</defs>
</svg>
