<svg width="27" height="27" viewBox="0 0 27 27" fill="none" xmlns="http://www.w3.org/2000/svg">
<g clip-path="url(#clip0_35_249)">
<path d="M17.572 19.5545C12.5714 19.5545 8.23496 18.7155 5.51786 17.1741C4.58281 17.6279 1.63783 19.096 0.858729 20.0257C0.698742 20.2166 0.511865 20.708 0.499766 20.9554C0.491027 21.1484 0.710842 21.6956 0.710842 21.6956C7.32344 24.4907 11.0206 23.4259 14.7171 22.6972C18.6496 21.9248 22.2157 19.4073 22.2157 19.4073C22.2453 19.3743 22.2809 19.3414 22.3125 19.3098C20.6905 19.4705 19.0993 19.5545 17.572 19.5545Z" fill="white" fill-opacity="0.2"/>
<path d="M17.6774 4.59793L17.6216 4.59928C17.5752 3.97746 16.823 3.4827 15.8947 3.4827C14.9361 3.4827 14.159 4.00906 14.159 4.65911C14.159 4.66986 14.1631 4.67927 14.1631 4.69003C5.37585 5.60292 5.73549 11.7532 5.9143 15.0734C5.94589 15.6548 5.90421 16.2269 5.86522 16.6007C9.44881 18.6416 16.0681 19.3911 23.2857 18.5273C24.6228 17.6057 26.4485 16.7217 26.4485 16.7217C26.4485 16.7217 26.5614 13.3108 26.4485 12.1814C25.8536 6.25029 20.7817 4.88363 17.6774 4.59793Z" fill="white" fill-opacity="0.2"/>
</g>
<defs>
<clipPath id="clip0_35_249">
<rect x="0.499756" y="0.5" width="26" height="26" fill="white"/>
</clipPath>
</defs>
</svg>
