<svg width="27" height="27" viewBox="0 0 27 27" fill="none" xmlns="http://www.w3.org/2000/svg">
<g clip-path="url(#clip0_35_186)">
<path fill-rule="evenodd" clip-rule="evenodd" d="M7.88109 25.1276H19.1165C19.8322 25.1276 20.4118 24.5479 20.4125 23.8322V12.2756L21.1372 13.001C21.3801 13.2438 21.7098 13.3805 22.0531 13.3799H22.0537C22.397 13.3799 22.7267 13.2432 22.9695 13.0003L26.1199 9.84609C26.6251 9.3396 26.6251 8.52028 26.1199 8.01444L20.3594 2.25134C20.1158 2.00846 19.7862 1.8718 19.4429 1.8718H19.4423C19.3878 1.8718 19.3341 1.87568 19.281 1.88216C19.2272 1.87503 19.1728 1.8718 19.1178 1.8718H17.516C17.0763 1.8718 16.6669 2.0946 16.4286 2.46313C15.9188 3.25072 14.7686 3.75915 13.4991 3.75915C12.2296 3.75915 11.08 3.25072 10.5703 2.46313C10.3319 2.0946 9.92194 1.8718 9.48281 1.8718H7.88109C7.82603 1.8718 7.77163 1.87568 7.71787 1.88216C7.32667 1.83293 6.92057 1.9696 6.63947 2.25134L0.877675 8.01508C0.372481 8.52157 0.372481 9.34089 0.877675 9.84674L4.02866 13.0003C4.27154 13.2432 4.60186 13.3799 4.94513 13.3799C5.28905 13.3799 5.61872 13.2438 5.86161 13.0003L6.58572 12.2762V23.8322C6.58572 24.5472 7.16604 25.1276 7.88109 25.1276Z" fill="white" fill-opacity="0.2"/>
</g>
<defs>
<clipPath id="clip0_35_186">
<rect width="26" height="26" fill="white" transform="translate(0.499756 0.5)"/>
</clipPath>
</defs>
</svg>
