<svg width="27" height="27" viewBox="0 0 27 27" fill="none" xmlns="http://www.w3.org/2000/svg">
<g clip-path="url(#clip0_35_195)">
<path d="M7.62001 21.2243H1.85889V23.5474H7.62001V21.2243Z" fill="white" fill-opacity="0.2"/>
<path d="M7.62001 14.6172H1.85889V17.2542H7.62001V14.6172Z" fill="white" fill-opacity="0.2"/>
<path d="M25.1408 21.2243H19.3796V23.5474H25.1408V21.2243Z" fill="white" fill-opacity="0.2"/>
<path d="M23.6259 13.0938V12.2145C22.3995 12.0356 21.4545 10.9768 21.4545 9.70156V0.5H18.9919V3.41418C18.9919 6.44263 16.528 8.90643 13.4996 8.90643C10.4712 8.90643 8.00738 6.44257 8.00738 3.41418V0.5H5.5447V9.70151C5.5447 10.9768 4.59976 12.0356 3.37329 12.2144V13.0938H9.14301V18.7777H3.37334V19.7011H9.14306V25.071H3.37334V26.5H23.6259V25.071H17.8562V19.7011H23.6259V18.7777H17.8562V13.0938H23.6259Z" fill="white" fill-opacity="0.2"/>
<path d="M25.1408 14.6172H19.3796V17.2542H25.1408V14.6172Z" fill="white" fill-opacity="0.2"/>
</g>
<defs>
<clipPath id="clip0_35_195">
<rect x="0.499756" y="0.5" width="26" height="26" fill="white"/>
</clipPath>
</defs>
</svg>
