<svg width="27" height="27" viewBox="0 0 27 27" fill="none" xmlns="http://www.w3.org/2000/svg">
<g clip-path="url(#clip0_35_258)">
<path d="M26.4356 11.4786C26.4294 11.3905 26.4318 11.2829 26.3211 11.2567C26.1966 11.227 26.1406 11.3353 26.0799 11.4142C25.623 12.0047 25.0462 12.1168 24.3584 11.8804C23.648 11.6359 22.9971 11.2676 22.3236 10.9465C20.6683 10.1573 18.9546 9.8119 17.1451 10.1512C17.3188 9.7846 18.0984 9.08146 18.3028 9.0485C18.9228 8.94749 18.7536 8.1414 18.3028 7.95769C17.6924 7.70899 17.1115 7.62091 16.4554 7.62647C16.2878 7.628 16.1091 7.68168 15.95 7.72415C15.4185 7.86655 15.6273 8.05583 15.608 7.51536C15.5632 6.2514 14.8076 5.14209 13.8277 4.39459C13.7149 4.30879 13.6031 4.27796 13.5 4.28491C13.3965 4.27801 13.2847 4.30883 13.1722 4.39459C12.3138 5.04947 11.4589 6.11488 11.4047 7.24853C11.3911 7.53348 11.3667 7.73156 11.3667 7.73156C11.3667 7.73156 10.9709 7.68827 10.6947 7.64673C10.0198 7.54502 9.31852 7.7044 8.6972 7.95769C8.24639 8.14163 8.07719 8.94754 8.6972 9.0485C8.90247 9.0817 9.68668 9.78919 9.8569 10.1551C9.12188 10.0316 8.38448 9.97749 7.63699 10.0624C6.45471 10.197 5.36237 10.5995 4.30943 11.1328C3.76965 11.4063 3.23391 11.6894 2.65918 11.8866C1.9783 12.1201 1.39184 12.0085 0.936669 11.4141C0.876174 11.335 0.817904 11.2232 0.695383 11.2575C0.569572 11.2926 0.58932 11.4182 0.578055 11.5174C0.458687 12.5585 0.487428 13.6004 0.588856 14.6397C0.751753 16.3108 1.17888 17.8974 2.04477 19.3594C4.02304 22.7004 8.62507 23.6868 11.5029 21.6849C12.8125 20.7735 14.1846 20.8116 15.5206 21.676C16.4133 22.2537 17.3591 22.6181 18.4384 22.6821C20.8611 22.8252 22.8992 22.0357 24.4015 20.136C26.4174 17.5877 26.6493 14.5746 26.4356 11.4786ZM10.6629 18.1305C10.3673 18.1394 10.0716 18.1324 9.90915 18.1324C8.94308 18.1107 8.11599 18.2313 7.27573 18.1522C5.80118 18.0135 4.76159 17.2689 4.02373 16.0327C3.88638 15.8024 3.88322 15.5656 4.13485 15.4305C5.47965 14.7086 6.88759 14.2545 8.42746 14.6486C9.67296 14.9673 10.371 15.8811 10.8213 17.0227C10.9014 17.2257 10.9656 17.4351 11.0247 17.6456C11.1236 17.9956 11.0325 18.1197 10.6629 18.1305ZM22.9552 16.0924C22.1989 17.3471 21.1161 18.0396 19.6298 18.1641C18.5062 18.2585 17.3966 18.0761 16.2794 18.1237C16.0553 18.1331 15.8799 18.0234 15.948 17.7708C16.2208 16.7591 16.6443 15.8302 17.5094 15.1753C18.1497 14.6906 18.8789 14.48 19.5587 14.5115C20.7915 14.5068 21.8042 14.8637 22.7742 15.3655C23.1205 15.5447 23.1635 15.7473 22.9552 16.0924Z" fill="white" fill-opacity="0.2"/>
</g>
<defs>
<clipPath id="clip0_35_258">
<rect width="26" height="26" fill="white" transform="translate(0.499756 0.5)"/>
</clipPath>
</defs>
</svg>
