<svg width="27" height="27" viewBox="0 0 27 27" fill="none" xmlns="http://www.w3.org/2000/svg">
<g clip-path="url(#clip0_35_264)">
<path d="M2.07397 21.1172C2.07397 24.057 4.46625 26.5 7.40601 26.5C10.3458 26.5 12.738 24.057 12.738 21.1172C12.738 18.1775 10.3458 15.7852 7.40601 15.7852C4.46625 15.7852 2.07397 18.1775 2.07397 21.1172ZM6.64429 21.1172C6.64429 21.5376 6.98567 21.8789 7.40601 21.8789C7.82634 21.8789 8.16772 21.537 8.16772 21.1166H9.69116C9.69116 22.3768 8.66602 23.4024 7.40601 23.4024C6.146 23.4024 5.12085 22.3772 5.12085 21.1172H6.64429Z" fill="white" fill-opacity="0.2"/>
<path d="M9.69116 8.92972C9.69116 7.66971 8.66601 6.64456 7.406 6.64456C6.146 6.64456 5.12085 7.66971 5.12085 8.92972H6.64429C6.64429 8.50938 6.98567 8.168 7.406 8.168C7.82634 8.168 8.16772 8.50938 8.16772 8.92972C8.16772 9.35005 7.82634 9.69144 7.406 9.69144H6.64429V12.8784C5.86928 13.1563 5.28688 13.8367 5.15636 14.6718C5.86472 14.4236 6.61394 14.2617 7.406 14.2617C8.19807 14.2617 8.94729 14.4236 9.65565 14.6718C9.52513 13.8367 8.94273 13.1563 8.16772 12.8784V11.0847C9.05441 10.7699 9.69116 9.92273 9.69116 8.92972Z" fill="white" fill-opacity="0.2"/>
<path d="M19.5935 9.69143C16.6537 9.69143 14.2615 12.0837 14.2615 15.0235C14.2615 17.9632 16.6537 20.3555 19.5935 20.3555C22.5333 20.3555 24.9255 17.9632 24.9255 15.0235C24.9255 12.0837 22.5333 9.69143 19.5935 9.69143ZM19.5935 17.3086C18.3335 17.3086 17.3083 16.2835 17.3083 15.0235H18.8318C18.8318 15.4438 19.1732 15.7852 19.5935 15.7852C20.0138 15.7852 20.3552 15.4432 20.3552 15.0229H21.8787C21.8787 16.2831 20.8535 17.3086 19.5935 17.3086Z" fill="white" fill-opacity="0.2"/>
<path d="M21.8787 2.78519C21.8787 1.52518 20.8535 0.500031 19.5935 0.500031C18.3335 0.500031 17.3083 1.52518 17.3083 2.78519H18.8318C18.8318 2.36485 19.1732 2.02347 19.5935 2.02347C20.0138 2.02347 20.3552 2.36485 20.3552 2.78519C20.3552 3.20552 20.0138 3.54691 19.5935 3.54691H18.8318V6.78461C18.0568 7.06252 17.4744 7.7429 17.3439 8.57802C18.0522 8.32986 18.8014 8.168 19.5935 8.168C20.3856 8.168 21.1348 8.32986 21.8432 8.57802C21.7126 7.7429 21.1302 7.06252 20.3552 6.78461V4.94022C21.2419 4.62541 21.8787 3.7782 21.8787 2.78519Z" fill="white" fill-opacity="0.2"/>
</g>
<defs>
<clipPath id="clip0_35_264">
<rect x="0.499756" y="0.500031" width="26" height="26" fill="white"/>
</clipPath>
</defs>
</svg>
