<svg width="27" height="27" viewBox="0 0 27 27" fill="none" xmlns="http://www.w3.org/2000/svg">
<g clip-path="url(#clip0_35_273)">
<path d="M26.0667 12.6333H25.122C24.7099 10.1781 22.587 8.3 20.0312 8.3C17.5083 8.3 15.3963 10.0849 14.907 12.4509C14.4863 12.0982 14.0061 11.911 13.5 11.911C12.9943 11.911 12.5146 12.0982 12.0938 12.4505C11.6102 10.0845 9.52417 8.3 7.0312 8.3C4.29427 8.3 2.04483 10.4021 1.8221 13.0667H0.933333C0.6937 13.0667 0.5 13.2608 0.5 13.5C0.5 13.7392 0.6937 13.9333 0.933333 13.9333H1.8221C2.04483 16.5979 4.29427 18.7 7.0312 18.7C9.83357 18.7 12.1168 16.4436 12.1926 13.6426C12.5623 13.0857 13.0225 12.7776 13.5 12.7776C13.9775 12.7776 14.4377 13.0862 14.8074 13.6426C14.8845 16.4436 17.1955 18.7 20.0312 18.7C22.8812 18.7 25.2 16.3674 25.2 13.5H26.0667C26.3063 13.5 26.5 13.3059 26.5 13.0667C26.5 12.8275 26.3063 12.6333 26.0667 12.6333ZM7.0312 17.8333C4.6249 17.8333 2.66667 15.8894 2.66667 13.5C2.66667 11.1106 4.6249 9.16667 7.0312 9.16667C9.444 9.16667 11.3333 11.0703 11.3333 13.5C11.3333 15.9297 9.444 17.8333 7.0312 17.8333ZM20.0312 17.8333C17.6249 17.8333 15.6667 15.8894 15.6667 13.5C15.6667 11.1106 17.6249 9.16667 20.0312 9.16667C22.444 9.16667 24.3333 11.0703 24.3333 13.5C24.3333 15.9297 22.444 17.8333 20.0312 17.8333Z" fill="white" fill-opacity="0.2"/>
</g>
<defs>
<clipPath id="clip0_35_273">
<rect x="0.5" y="0.5" width="26" height="26" fill="white"/>
</clipPath>
</defs>
</svg>
