<svg width="31" height="31" viewBox="0 0 31 31" fill="none" xmlns="http://www.w3.org/2000/svg">
<path d="M8.07095 2.02287L4.71604 2.86084L2.09497 8.9791L4.11058 10.3232L5.77319 6.99922L6.80552 7.2959L5.89308 16.384H14.8461L15.4032 11.0619L15.4577 10.5715H15.7301L15.4032 7.2959L16.4385 6.99922L18.0975 10.3232L20.1137 8.9791L17.492 2.86084L14.1377 2.02287C13.8047 2.25719 13.3991 2.39887 12.9571 2.50422C12.3879 2.63803 11.7461 2.70039 11.1043 2.70039C10.4625 2.70039 9.82075 2.63803 9.25161 2.50422C8.80962 2.39887 8.40396 2.25779 8.07095 2.02287ZM16.4385 11.6613L16.3477 12.509H27.1735L27.0827 11.6613H16.4385ZM16.2327 13.5988L14.6161 28.9777H18.4124L21.2278 15.8451H22.2934L25.1088 28.9777H28.9051L27.2885 13.5988H16.2327Z" fill="white" fill-opacity="0.2"/>
</svg>
