<svg width="27" height="27" viewBox="0 0 27 27" fill="none" xmlns="http://www.w3.org/2000/svg">
<g clip-path="url(#clip0_35_278)">
<path d="M21.924 0.5C21.7243 0.5 21.5178 0.595812 21.3849 0.75033C21.2602 0.895218 21.2076 1.08203 21.2368 1.27626C22.1216 7.14506 19.2819 13.1576 14.1706 16.238C14.1454 16.253 14.1217 16.2696 14.0984 16.2881C13.9351 16.2466 13.7655 16.2257 13.5935 16.2257C13.5615 16.2257 13.5293 16.2264 13.5029 16.228C13.2955 16.2176 13.095 16.239 12.9013 16.2881C12.8781 16.2696 12.8543 16.253 12.8293 16.238C7.71771 13.1576 4.87794 7.14498 5.76291 1.27617C5.79211 1.08203 5.73954 0.895262 5.61466 0.750197C5.48188 0.595812 5.27519 0.5 5.07553 0.5C4.79887 0.5 4.60044 0.67656 4.55742 0.960682C3.60217 7.29773 6.43832 13.606 11.7863 17.0533C11.6621 17.2269 11.5661 17.4183 11.5002 17.6204C11.4561 17.7553 11.4254 17.8951 11.4086 18.0373C11.3937 18.1643 11.3915 18.2934 11.3991 18.4231C10.0802 19.1605 9.1881 20.5699 9.1881 22.1882C9.1881 24.5695 11.1186 26.5 13.4999 26.5C15.8812 26.5 17.8117 24.5695 17.8117 22.1882C17.8117 20.5697 16.9196 19.1605 15.6007 18.4231C15.6083 18.2934 15.6061 18.1643 15.5912 18.0373C15.5744 17.8951 15.5437 17.7553 15.4996 17.6204C15.4337 17.4183 15.3377 17.2269 15.2135 17.0533C20.5614 13.606 23.3975 7.29773 22.4422 0.960682C22.3991 0.67656 22.2007 0.5 21.924 0.5ZM12.7847 17.7705C12.8589 17.6816 12.9553 17.6104 13.0638 17.5597C13.1828 17.5041 13.3166 17.4731 13.4545 17.4731C13.4685 17.4731 13.4826 17.4735 13.5026 17.4741C13.6556 17.4667 13.8044 17.4983 13.9351 17.5597C14.0438 17.6107 14.1403 17.6816 14.2145 17.7707C14.2544 17.8185 14.2951 17.881 14.3263 17.9567C14.0586 17.9046 13.7824 17.8767 13.4995 17.8767C13.2165 17.8767 12.9404 17.9048 12.6726 17.9567C12.7042 17.8807 12.7448 17.8184 12.7847 17.7705ZM16.9476 22.1882C16.9476 24.0892 15.4009 25.6359 13.4998 25.6359C11.5986 25.6359 10.052 24.0893 10.052 22.1882C10.052 20.8646 10.8021 19.7134 11.8991 19.1359C11.9336 19.1178 11.9681 19.0995 12.0033 19.0825C12.1428 19.015 12.2877 18.9573 12.437 18.9088C12.4729 18.8971 12.5091 18.8862 12.5456 18.8757C12.849 18.7883 13.1687 18.7405 13.4999 18.7405C13.831 18.7405 14.151 18.7884 14.4541 18.8757C14.4906 18.8864 14.5268 18.8971 14.5628 18.9088C14.7119 18.9572 14.8569 19.0149 14.9964 19.0825C15.0316 19.0995 15.066 19.1178 15.1006 19.1359C16.1974 19.7136 16.9476 20.8647 16.9476 22.1882Z" fill="white" fill-opacity="0.2"/>
<path d="M13.4998 24.9601C15.0307 24.9601 16.2717 23.7191 16.2717 22.1881C16.2717 20.6572 15.0307 19.4162 13.4998 19.4162C11.9688 19.4162 10.7278 20.6572 10.7278 22.1881C10.7278 23.7191 11.9688 24.9601 13.4998 24.9601Z" fill="white" fill-opacity="0.2"/>
</g>
<defs>
<clipPath id="clip0_35_278">
<rect x="0.499756" y="0.5" width="26" height="26" fill="white"/>
</clipPath>
</defs>
</svg>
