<svg width="27" height="27" viewBox="0 0 27 27" fill="none" xmlns="http://www.w3.org/2000/svg">
<g clip-path="url(#clip0_35_296)">
<path d="M24.5282 15.4723C24.5282 10.866 21.6884 6.91252 17.6685 5.26495L16.196 7.29373C19.6285 8.42804 22.1133 11.6645 22.1133 15.4723C22.1133 20.2215 18.2495 24.0852 13.5003 24.0852C8.75106 24.0852 4.88727 20.2214 4.88727 15.4723C4.88727 11.6645 7.37197 8.4281 10.8043 7.29373L9.33186 5.26495C5.3121 6.91247 2.47241 10.866 2.47241 15.4723C2.47241 21.553 7.41951 26.5001 13.5003 26.5001C19.581 26.5001 24.5282 21.553 24.5282 15.4723Z" fill="white" fill-opacity="0.2"/>
<path d="M11.6334 7.06544L12.4155 8.14339L13.5004 8.06664L14.5852 8.14339L15.3674 7.06544L16.8828 4.9772L18.6521 2.53933L16.9979 0.500061H13.5004H10.0029L8.34863 2.53933L10.118 4.9772L11.6334 7.06544Z" fill="white" fill-opacity="0.2"/>
</g>
<defs>
<clipPath id="clip0_35_296">
<rect x="0.500244" y="0.500061" width="26" height="26" fill="white"/>
</clipPath>
</defs>
</svg>
