<svg width="27" height="27" viewBox="0 0 27 27" fill="none" xmlns="http://www.w3.org/2000/svg">
<g clip-path="url(#clip0_35_239)">
<path d="M4.40753 12.0463H7.87304C8.11213 12.0463 8.3062 11.8523 8.3062 11.6132V9.00887C6.29839 10.496 5.2228 10.5454 4.73461 10.4193C4.2724 10.2993 4.08787 9.96927 4.04498 9.87784C4.02635 9.76565 4.00208 9.64697 3.97437 9.52696V11.6132C3.97431 11.8523 4.16838 12.0463 4.40753 12.0463Z" fill="white" fill-opacity="0.2"/>
<path d="M19.3054 14.601C19.7867 14.491 20.1969 14.1998 20.4594 13.7818L20.8385 13.0865C20.0709 12.7526 19.9478 12.7283 19.9023 12.7205C19.7589 12.669 19.2421 12.3766 18.5361 11.9589L18.5621 11.9329C18.7315 11.7635 18.7315 11.4894 18.5621 11.3204C18.3931 11.151 18.1189 11.151 17.9495 11.3204L17.7689 11.5006C17.4133 11.2867 17.0342 11.0566 16.6444 10.8184L16.728 10.7348C16.8969 10.5658 16.8969 10.2916 16.728 10.1222C16.5586 9.95329 16.2844 9.95329 16.1154 10.1222L15.8854 10.3522C15.6004 10.1764 15.3154 10.0005 15.0364 9.82725L15.1101 9.75359C15.2794 9.58419 15.2794 9.31001 15.1101 9.14107C14.9411 8.97172 14.6669 8.97172 14.4976 9.14107L14.2823 9.35636C13.1447 8.64333 12.216 8.0464 11.9608 7.85537C10.9523 7.09686 9.38253 8.17204 9.17932 8.31844C9.17714 8.32062 9.175 8.32189 9.17236 8.32408V8.87811L17.9102 14.3644C18.3286 14.627 18.8237 14.7101 19.3054 14.601Z" fill="white" fill-opacity="0.2"/>
<path d="M24.7609 14.7411L24.5612 14.6653C23.8313 14.3884 23.0767 14.1017 22.3619 13.7733C22.0886 13.6473 21.8464 13.5368 21.6311 13.4398L21.2062 14.2195C20.8072 14.8567 20.2051 15.2838 19.4977 15.4454C19.295 15.4918 19.0905 15.5147 18.8874 15.5147C18.3827 15.5147 17.8872 15.3731 17.4492 15.098L15.3898 13.8054L12.3835 16.8113H11.1585L14.6374 13.3328L14.0595 12.9698L10.2176 16.8113H8.9926L13.3067 12.4972L12.7289 12.1346L8.05179 16.8113H6.82675L11.9763 11.662L9.17189 9.90107V11.613C9.17189 12.33 8.58928 12.9126 7.87234 12.9126H4.40684C3.69036 12.9126 3.10728 12.33 3.10728 11.613V8.28485C3.0986 8.28266 3.0917 8.27749 3.08302 8.2753C2.46182 8.12844 1.97926 8.77345 1.90778 8.87569C-0.396338 12.6994 0.696152 15.8998 1.23115 17.036C1.05485 17.1946 0.941342 17.4225 0.941342 17.6776V18.5435C0.941342 19.0213 1.33035 19.4099 1.80773 19.4099L23.7863 19.4095C23.7958 19.4099 23.8447 19.4129 23.924 19.4129C24.2805 19.4129 25.2392 19.3531 25.8846 18.7523C26.2892 18.3755 26.4963 17.8691 26.4993 17.247V17.2457V17.2444C26.4993 16.0913 25.8495 15.1556 24.7609 14.7411ZM25.2963 18.116C24.7843 18.5955 23.8516 18.5457 23.8144 18.544L1.80773 18.5435V17.6776H1.83027H7.00595H9.17189H11.3378H25.5706C25.5159 17.8509 25.425 17.996 25.2963 18.116Z" fill="white" fill-opacity="0.2"/>
</g>
<defs>
<clipPath id="clip0_35_239">
<rect x="0.499756" y="0.5" width="26" height="26" fill="white"/>
</clipPath>
</defs>
</svg>
