<svg width="27" height="27" viewBox="0 0 27 27" fill="none" xmlns="http://www.w3.org/2000/svg">
<g clip-path="url(#clip0_35_223)">
<path d="M19.2498 5.24999V7.09868L22.2498 9.09865V5.24999H19.2498Z" fill="white" fill-opacity="0.2"/>
<path d="M21.4997 0.5H5.49974C5.08552 0.5 4.74976 0.835816 4.74976 1.24999V3.75H22.2497V1.24999C22.2497 0.835816 21.9139 0.5 21.4997 0.5Z" fill="white" fill-opacity="0.2"/>
<path d="M4.74976 5.24999V9.09865L7.74976 7.09868V5.24999H4.74976Z" fill="white" fill-opacity="0.2"/>
<path d="M18.0837 8.12401C17.8751 7.98492 17.7498 7.75077 17.7498 7.50001V5.24999H9.24974V7.50001C9.24974 7.75082 9.12446 7.98497 8.91575 8.12401L4.74976 10.9013V25.75C4.74976 26.1642 5.08557 26.5 5.49974 26.5H10.4998C10.8582 26.5 11.1665 26.2464 11.2357 25.8948L13.4997 14.3856L15.7638 25.8949C15.833 26.2465 16.1413 26.5001 16.4997 26.5001H21.4997C21.914 26.5001 22.2497 26.1643 22.2497 25.7501V10.9014L18.0837 8.12401Z" fill="white" fill-opacity="0.2"/>
</g>
<defs>
<clipPath id="clip0_35_223">
<rect x="0.499756" y="0.5" width="26" height="26" fill="white"/>
</clipPath>
</defs>
</svg>
