<svg width="27" height="27" viewBox="0 0 27 27" fill="none" xmlns="http://www.w3.org/2000/svg">
<g clip-path="url(#clip0_35_286)">
<path d="M8.36621 24.2315H17.7348V26.4492H8.36621V24.2315Z" fill="white" fill-opacity="0.2"/>
<path d="M8.36621 0.449219H17.7348V2.66693H8.36621V0.449219Z" fill="white" fill-opacity="0.2"/>
<path d="M17.6749 7.0508H17.7348V4.19038H8.36621V6.97205C9.6651 6.04688 11.2532 5.50197 12.9659 5.50197C14.7266 5.50197 16.3561 6.07782 17.6749 7.0508Z" fill="white" fill-opacity="0.2"/>
<path d="M8.36621 19.9264V22.7081H17.7348V19.803C16.4053 20.8034 14.7535 21.3965 12.9659 21.3965C11.2532 21.3965 9.6651 20.8516 8.36621 19.9264Z" fill="white" fill-opacity="0.2"/>
<path d="M19.3448 12.6875C18.9675 9.50297 16.2507 7.0254 12.966 7.0254C9.42397 7.0254 6.54272 9.90723 6.54272 13.4492C6.54272 16.9912 9.42397 19.8731 12.966 19.8731C16.2507 19.8731 18.9675 17.3955 19.3448 14.2109H20.5391V12.6875H19.3448ZM15.3426 14.2109H12.2042V9.69141H13.7277V12.6875H15.3426V14.2109Z" fill="white" fill-opacity="0.2"/>
</g>
<defs>
<clipPath id="clip0_35_286">
<rect x="0.499756" y="0.5" width="26" height="26" fill="white"/>
</clipPath>
</defs>
</svg>
